<?xml version="1.0" standalone="no"?>
<!DOCTYPE svg PUBLIC "-//W3C//DTD SVG 20010904//EN"
 "http://www.w3.org/TR/2001/REC-SVG-20010904/DTD/svg10.dtd">
<svg version="1.0" xmlns="http://www.w3.org/2000/svg"
 width="260.000000pt" height="280.000000pt" viewBox="0 0 260.000000 280.000000"
 preserveAspectRatio="xMidYMid meet">

<g transform="translate(0.000000,280.000000) scale(0.100000,-0.100000)"
fill="#000000" stroke="none">
<path d="M1052 2117 c-12 -13 -28 -41 -35 -62 l-14 -39 -6 40 c-12 75 -70 96
-111 41 -16 -22 -21 -43 -21 -90 0 -34 4 -69 8 -78 6 -12 2 -18 -15 -21 -23
-4 -24 -3 -20 51 5 88 -40 147 -93 123 -49 -22 -53 -127 -9 -191 14 -19 14
-25 3 -32 -24 -15 -29 -10 -29 26 0 48 -32 108 -65 123 -23 11 -32 10 -51 -3
-44 -29 -26 -139 31 -183 23 -18 25 -24 15 -37 -18 -22 -25 -19 -38 20 -15 41
-65 85 -96 85 -76 0 -53 -138 30 -180 27 -14 30 -19 22 -40 -21 -56 -2 -149
62 -305 106 -259 162 -367 217 -415 60 -54 136 -90 188 -90 76 0 138 60 151
148 7 46 0 71 -71 252 -43 109 -44 152 -5 325 25 113 22 173 -12 239 -16 32
-18 41 -7 45 31 10 69 61 84 116 27 92 3 155 -60 155 -20 0 -39 -8 -53 -23z
m93 -7 c22 -24 22 -94 0 -147 -63 -150 -175 -78 -120 78 29 81 81 112 120 69z
m-181 -5 c36 -36 27 -143 -14 -180 -16 -15 -25 -16 -45 -7 -44 20 -46 122 -4
176 23 30 41 33 63 11z m-165 -48 c45 -49 34 -168 -16 -175 -50 -7 -85 123
-47 176 19 28 35 28 63 -1z m-128 -88 c48 -67 32 -170 -24 -150 -27 9 -67 84
-67 126 0 62 54 76 91 24z m332 -35 c5 -28 4 -31 -13 -27 -23 6 -25 16 -9 45
13 24 14 22 22 -18z m5 -48 c36 -19 68 -54 82 -91 19 -47 15 -153 -10 -245
-24 -95 -28 -180 -10 -237 7 -21 31 -81 53 -133 58 -137 53 -214 -16 -278 -58
-54 -165 -30 -263 60 -53 48 -116 171 -219 423 -82 201 -83 263 -9 360 29 39
136 113 199 138 50 20 157 22 193 3z m-464 -27 c51 -40 72 -113 40 -140 -48
-40 -147 104 -102 149 17 17 32 15 62 -9z"/>
<path d="M1084 2102 c-36 -23 -65 -142 -45 -181 15 -27 32 -27 58 2 64 70 53
223 -13 179z"/>
<path d="M914 2079 c-22 -25 -27 -120 -6 -141 29 -29 65 58 52 126 -6 37 -21
42 -46 15z"/>
<path d="M752 2048 c-19 -19 -15 -102 7 -129 28 -34 46 -13 45 52 -1 57 -29
100 -52 77z"/>
<path d="M604 1965 c-16 -41 22 -125 57 -125 15 0 19 7 19 38 0 65 -59 133
-76 87z"/>
<path d="M806 1856 c-87 -37 -165 -102 -199 -166 -40 -77 -34 -119 47 -319
127 -310 183 -399 282 -451 89 -45 143 -36 184 33 33 54 27 119 -24 238 -68
159 -73 200 -42 336 41 177 33 266 -28 323 -40 37 -140 40 -220 6z"/>
<path d="M494 1845 c-9 -22 14 -72 44 -95 31 -25 46 -16 38 23 -10 51 -70 104
-82 72z"/>
<path d="M1445 2115 c-28 -28 -31 -61 -12 -126 11 -36 11 -49 1 -74 -7 -16
-13 -40 -14 -52 0 -17 -8 -23 -42 -28 -22 -4 -51 -17 -62 -29 -27 -26 -196
-327 -196 -348 0 -8 8 -22 18 -30 30 -27 209 -128 226 -128 19 0 59 53 106
143 19 37 38 67 42 67 11 0 21 -89 15 -140 -3 -27 -27 -99 -52 -162 -58 -141
-65 -196 -33 -258 13 -25 39 -55 58 -68 29 -20 44 -23 91 -19 68 6 100 22 167
82 39 35 62 70 101 148 54 112 162 368 181 433 12 41 10 125 -4 155 -5 12 -1
18 18 23 38 9 86 80 86 126 0 20 -5 41 -12 48 -32 32 -104 -8 -128 -70 -18
-43 -17 -43 -35 -28 -20 17 -19 27 4 35 27 8 61 83 61 133 0 33 -5 45 -24 58
-21 13 -29 14 -53 2 -33 -15 -64 -73 -66 -123 -2 -37 -4 -40 -25 -26 -11 6 -9
15 7 42 29 48 29 141 0 170 -28 28 -59 21 -87 -21 -20 -29 -23 -44 -20 -93 4
-54 3 -57 -16 -51 -29 9 -29 10 -17 32 31 57 -1 169 -53 187 -25 8 -31 6 -52
-18 -13 -16 -24 -40 -24 -55 -1 -25 -2 -24 -22 13 -11 22 -27 48 -36 58 -22
25 -68 21 -97 -8z m98 -15 c14 -16 31 -55 38 -85 7 -30 16 -55 22 -55 5 0 7
-14 3 -32 l-6 -33 83 0 c70 0 90 -4 137 -28 81 -42 141 -91 180 -149 32 -47
35 -56 34 -122 -1 -63 -7 -87 -62 -218 -139 -335 -189 -416 -291 -476 -35 -20
-59 -26 -104 -27 -55 0 -61 2 -92 37 -63 68 -67 138 -13 257 67 149 82 238 57
337 l-12 46 -58 -104 c-31 -57 -67 -112 -78 -122 -20 -18 -22 -17 -131 45 -60
35 -112 71 -115 80 -6 19 157 314 190 346 13 11 42 24 63 28 37 6 40 9 46 45
3 22 12 45 19 51 10 10 9 23 -6 67 -19 59 -17 95 10 125 24 26 58 21 86 -13z
m159 -11 c40 -53 32 -160 -14 -174 -52 -17 -100 104 -67 168 24 45 51 47 81 6z
m162 -31 c36 -51 4 -178 -43 -178 -58 0 -70 130 -16 183 22 23 41 21 59 -5z
m126 -57 c0 -5 -6 -11 -13 -14 -33 -13 -62 -126 -36 -142 17 -11 48 25 64 74
9 32 14 39 14 21 1 -39 -35 -109 -61 -119 -39 -15 -58 4 -58 55 0 25 7 58 15
74 21 40 75 77 75 51z m-355 -81 c3 -5 1 -10 -4 -10 -6 0 -11 5 -11 10 0 6 2
10 4 10 3 0 8 -4 11 -10z m475 -49 c0 -5 -9 -13 -20 -16 -11 -4 -30 -25 -41
-47 -35 -68 -2 -95 45 -35 14 17 26 27 26 20 0 -18 -48 -71 -71 -78 -44 -14
-63 39 -34 95 24 46 95 92 95 61z"/>
<path d="M1470 2095 c-26 -31 -13 -110 27 -162 48 -65 85 -23 64 71 -19 85
-61 127 -91 91z"/>
<path d="M1467 1903 c-3 -10 -8 -27 -11 -38 -5 -18 -1 -20 49 -20 52 -1 55 1
65 29 8 24 8 28 -2 18 -18 -18 -49 -15 -74 9 -21 20 -22 20 -27 2z m43 -28
l25 -14 -32 -1 c-23 0 -33 5 -33 15 0 18 8 18 40 0z"/>
<path d="M1586 1855 c-3 -13 -22 -37 -43 -55 -24 -21 -30 -30 -16 -26 18 6 22
0 33 -56 13 -60 13 -63 -12 -110 -14 -26 -22 -48 -18 -48 13 0 30 -85 30 -148
0 -68 -18 -133 -67 -246 -45 -101 -48 -168 -12 -220 25 -37 56 -56 92 -56 35
0 121 45 168 87 48 43 116 176 215 418 84 206 80 271 -22 370 -25 23 -75 58
-111 76 -59 30 -77 34 -149 35 -78 1 -83 0 -88 -21z m171 0 c28 -8 79 -34 113
-57 105 -70 152 -158 131 -244 -13 -52 -125 -322 -182 -439 -56 -116 -116
-173 -212 -204 -49 -17 -89 -1 -117 44 -31 51 -26 111 19 218 70 167 78 211
56 322 -15 76 -15 85 -1 113 19 37 20 64 5 130 -11 46 -10 52 11 82 37 52 87
62 177 35z"/>
<path d="M1490 1800 c-23 -7 -23 -8 -3 -9 12 -1 25 4 28 9 3 6 5 10 3 9 -2 -1
-14 -5 -28 -9z"/>
<path d="M1440 1770 c0 -28 26 -45 45 -30 21 18 19 24 -15 37 -26 10 -30 9
-30 -7z m40 -16 c0 -2 -7 -4 -15 -4 -8 0 -15 4 -15 10 0 5 7 7 15 4 8 -4 15
-8 15 -10z"/>
<path d="M1649 2084 c-28 -34 -4 -154 31 -154 34 0 36 119 2 152 -17 18 -20
18 -33 2z"/>
<path d="M1823 2052 c-31 -20 -43 -106 -18 -138 15 -19 15 -19 35 5 34 40 20
156 -17 133z"/>
</g>
</svg>
